<?xml version="1.0" encoding="UTF-8"?><svg id="Vladimir_Putin" xmlns="http://www.w3.org/2000/svg" viewBox="0 0 128 128"><path d="M112.85498,54.25586c-.21094-1.38867-1.19824-2.53564-2.51465-2.92236-.18573-.05481-.37439-.09265-.56476-.11469-.70374-27.05066-20.92896-48.88727-45.74774-48.96881-24.86377,0-45.15741,21.85352-45.84705,48.99884-.1676,.02234-.33618,.04657-.51233,.09833-1.32031,.38818-2.31152,1.53955-2.52344,2.93311l-.01953,.125,.02344,.125c.18848,1.01172,.43652,2.03564,.73926,3.04297,.20703,.68896,.37598,1.16357,.58594,1.75195,.09668,.26953,.20117,.56348,.32324,.91602l.04102,.11865c.04688,.13818,.48145,1.40771,1.07422,3.44434,.66992,2.30713,1.03809,4.76807,1.39453,7.14844,.54492,3.64502,1.1084,7.41406,2.76855,10.81787,.34473,.70801,.92383,1.10352,.95117,1.11963,.63867,.47949,1.29688,.59619,1.77734,.68115,.37891,.06738,.7627,.10107,1.15039,.10107,.30609,0,.61505-.03754,.92365-.07941,.50781,5.34583,1.4209,10.40546,2.69159,14.78986,1.0625,3.66113,2.23242,6.42725,2.83887,7.75684,1.02734,2.25391,1.99805,4.3833,3.43848,6.28955,1.12213,1.48499,4.46008,5.146,11.2298,7.12665,.53784,.91638,1.09326,1.52582,1.35223,1.80402,1.75195,1.88086,3.69922,2.45996,6.16406,3.19336,1.45996,.43506,2.57812,.60938,3.66113,.77783,.42188,.06543,2.6709,.39062,5.6709,.41846l.14941,.00049v-.00049c3-.02783,5.24902-.35303,5.67188-.41846,1.08203-.16846,2.2002-.34277,3.66016-.77783,2.46484-.7334,4.41211-1.3125,6.16406-3.19385,.25763-.27649,.80884-.88116,1.34412-1.78973l.00061,.00214c7.2334-2.10107,10.61621-5.99854,11.48047-7.14258,1.44043-1.90625,2.41113-4.03564,3.44141-6.29639,.60449-1.3252,1.77637-4.09375,2.83691-7.75,1.2804-4.41833,2.19836-9.52509,2.70349-14.92151,.23828,.02502,.47729,.06116,.7135,.06116,.38574,0,.76855-.0332,1.14453-.10059,.47852-.08447,1.13379-.20068,1.77051-.67871l-.00293-.00342c.43848-.28027,.83301-.86914,.95117-1.11182,1.65234-3.39014,2.21387-7.14258,2.75586-10.77148,.35449-2.36963,.72168-4.81982,1.38867-7.1167,.62207-2.13574,1.06738-3.41943,1.07324-3.43555,.08203-.24219,.15918-.44824,.23828-.66309,.17969-.48438,.38281-1.0332,.70508-2.10547,.29883-1.00049,.54688-2.01953,.73535-3.0293l.02344-.125-.01953-.12549ZM64.06494,3.75c24.00604,.07928,43.59338,21.33331,44.2146,47.63776-.0835,.02728-.16803,.04559-.25073,.07904-.55078,.22217-.91895,.51416-1.01855,.59814l-2.40173,3.28094c.11987-3.39233-.1192-5.98004-.37561-7.6452-.25-1.63281-.50879-3.32129-1.27148-5.37402-.99707-2.68311-2.52246-5.1499-4.53809-7.33594-.07227-3.17139-.7168-6.26416-1.91602-9.19775-1.10352-2.69775-2.70508-5.27246-4.63281-7.4458-1.375-1.55029-2.96191-2.96484-4.58887-4.09033-2.55078-1.7627-4.80762-2.61768-6.02051-3.07715-2.71387-1.0293-4.07715-1.54541-5.77246-1.57275-1.92676-.02783-3.13477,.46191-4.56152,1.03027-1.26074,.50244-2.69043,1.07178-4.95996,1.38818-.65039,.09082-1.31641,.15234-1.94238,.18311l-.09863,.00098c-.66113-.03174-1.32715-.09326-1.97754-.18408-2.26953-.31641-3.69922-.88574-4.95996-1.38818-1.42676-.56885-2.6709-1.05908-4.56152-1.03027-1.69531,.02734-3.05859,.54346-5.77246,1.57275-1.21191,.45898-3.46875,1.31299-6.02148,3.07764-1.62891,1.12842-3.21484,2.54248-4.58691,4.08936-1.92676,2.17041-3.5293,4.74512-4.63379,7.4458-1.19922,2.93213-1.84375,6.0249-1.91602,9.19824-2.01465,2.18604-3.54102,4.65283-4.53906,7.33643-.76172,2.05273-1.02051,3.74072-1.27051,5.37354-.31732,2.0647-.4071,4.68237-.2749,7.65289l-2.28369-3.1402-.11816-.12793c-.08783-.07526-.59143-.47437-1.33643-.70709C20.30359,24.99982,39.95111,3.75,64.06494,3.75Zm46.61328,53.35498c-.30762,1.02637-.49414,1.52881-.67383,2.01514-.08398,.22607-.16406,.44336-.25,.69434-.01855,.05322-.46094,1.3291-1.09473,3.50635-.69629,2.39404-1.07031,4.89502-1.43262,7.31348-.5498,3.6792-1.07031,7.15381-2.62012,10.33643-.11914,.24365-.30566,.41943-.40332,.49951l-.09766,.07324c-.32617,.24512-.66016,.31787-1.13281,.40186-.47467,.08459-.96777,.08228-1.46564,.0271,.0495-.63031,.09851-1.26105,.13654-1.89771l-1.49805-.08887c-.38965,6.53271-1.39648,12.75-2.91309,17.979-1.0332,3.56494-2.17285,6.25781-2.76367,7.55273-.99219,2.17676-1.92871,4.23291-3.27051,6.00732-.74329,.98419-3.52454,4.18719-9.44714,6.21014,.09149-.27765,.17432-.56964,.24402-.87762,.03516-.1543,.06445-.30518,.09082-.45215l-1.47656-.26465c-.02246,.12549-.04785,.25488-.07715,.38623-.47852,2.11084-1.66895,3.39062-2.05957,3.81055-1.47363,1.58203-3.16016,2.08398-5.49414,2.77832-1.36328,.40625-2.38281,.56494-3.46191,.73291-.40625,.06299-2.58008,.37695-5.49805,.40137h-.03809c-2.91797-.02441-5.0918-.33838-5.49707-.40137-1.08008-.16797-2.09961-.32666-3.46289-.73291-2.33398-.69434-4.02051-1.19629-5.49414-2.77783-.39062-.42041-1.58105-1.7002-2.05957-3.81055-.0293-.13184-.05469-.26123-.07715-.38672l-1.47656,.26465c.02637,.14697,.05566,.29785,.09082,.45264,.06799,.30029,.14917,.58429,.23798,.85577-5.49426-1.90576-8.23712-4.91632-9.19794-6.18878-1.3418-1.77441-2.27832-3.83057-3.27344-6.01416-.58691-1.28613-1.72461-3.97607-2.75977-7.5459-1.51758-5.23193-2.52539-11.44873-2.91406-17.979l-1.49805,.08887c.04065,.68085,.09229,1.3559,.14606,2.02948-.56891,.0838-1.13336,.08716-1.67926-.00946-.47461-.08447-.81055-.1582-1.1709-.42676-.00293-.00195-.30469-.2124-.47168-.5542-1.55762-3.19727-2.08008-6.6875-2.63281-10.3833-.36328-2.4292-.73926-4.94092-1.43848-7.34521-.58887-2.02783-1.0166-3.2832-1.09766-3.51855-.14062-.40967-.25977-.74316-.36719-1.0459-.20117-.56348-.36426-1.01807-.56152-1.67871-.27441-.91211-.50195-1.8374-.67676-2.75293,.15918-.7666,.71484-1.38867,1.44336-1.60254,.9082-.27002,1.67188,.22998,1.88672,.39111l3.85938,5.30713,1.21289-.88281-.00006-.00012,.00494-.00037c-.38574-4.85449-.14941-7.93945,.11719-9.67334,.25-1.63037,.48633-3.16992,1.19434-5.0791,.95996-2.58154,2.44824-4.95117,4.42285-7.04248l.20117-.21338,.00391-.29297c.03613-3.08545,.64453-6.09326,1.80957-8.93994,1.04102-2.5459,2.55078-4.97266,4.36719-7.01807,1.29395-1.45898,2.78711-2.79102,4.31836-3.85107,2.40234-1.66064,4.54688-2.47266,5.69922-2.90918,2.55176-.9668,3.83203-1.45215,5.26465-1.4751,1.59082-.04102,2.65234,.39355,3.98242,.92334,1.33984,.53418,2.85938,1.13965,5.30859,1.48047,.69531,.09717,1.40723,.16357,2.14941,.19775l.16895-.00098c.70703-.0332,1.41895-.09961,2.11426-.19678,2.44922-.34082,3.96875-.94629,5.30859-1.48047,1.33008-.52979,2.37891-.96143,3.98242-.92334,1.43262,.02295,2.71289,.5083,5.26465,1.4751,1.15234,.43701,3.29785,1.25,5.69824,2.90869,1.5293,1.05811,3.02344,2.38965,4.31934,3.85156,1.81738,2.04883,3.32715,4.47559,4.36719,7.01807,1.16504,2.84863,1.77344,5.85596,1.80957,8.93994l.00391,.29297,.20117,.21338c1.97559,2.0918,3.46289,4.46094,4.42188,7.04248,.70898,1.90918,.94531,3.44873,1.19531,5.0791,.2998,1.95117,.58398,5.20508,.2334,9.62744l.00659,.00055-.00464,.00629,1.21289,.88184,3.8418-5.28174c.09277-.06885,.28809-.19971,.5498-.30518,.45215-.18213,.89844-.21143,1.32617-.08496,.72363,.2124,1.27637,.83057,1.43457,1.5918-.1748,.91406-.40137,1.83545-.67285,2.74072Z"/><path d="M58.64404,87.16748l-1.71094-.65283c-.43848-.16699-.54297-.54346-.56738-.69727-.02441-.1543-.04297-.54443,.32031-.83984l-.94531-1.16406c-.67383,.54736-.99316,1.38477-.85645,2.24121,.1377,.85645,.70312,1.55225,1.51367,1.86133l1.7627,.67041,1.50098,.45166,1.00391,1.73096c.72461,1.24805,2.01953,1.99268,3.46582,1.99268h.00586c1.45508-.00195,2.75684-.75586,3.4834-2.01611l.96387-1.67236,3.01758-1.15723c.81055-.30908,1.37598-1.00488,1.51367-1.86133,.13672-.85645-.18262-1.69385-.85645-2.24121l-.94531,1.16406c.36328,.29541,.34473,.68555,.32031,.83984-.02441,.15381-.12891,.53027-.56738,.69727l-2.09473,.80127-.83887-.46289-1.81152,3.14355c-.45605,.79102-1.27344,1.26416-2.18652,1.26514h-.00391c-.90527,0-1.71582-.46533-2.16895-1.24561l-1.81543-3.12939-.84668,.47754-.65625-.19678Z"/><path d="M103.25635,67.72119l-.125,1.49512c.20508,.01709,.74902,.98584,.61133,2.65479-.06445,.771-.26758,1.50244-.55859,2.00635-.25195,.43652-.45605,.50684-.48047,.51172l-.12305,1.49512c.03711,.00293,.07812,.00488,.12207,.00488,.44141,0,1.16406-.19336,1.78125-1.26221,.40332-.69873,.6709-1.63379,.75293-2.63184,.19629-2.36475-.63672-4.16211-1.98047-4.27393Z"/><path d="M24.81592,72.74365c-.29102-.50439-.49414-1.23584-.55859-2.00684-.06348-.771,.0166-1.52588,.2207-2.0708,.17383-.46387,.3623-.58154,.38965-.5835l-.12305-1.49512c-.4209,.03467-1.19629,.28271-1.67188,1.55322-.28223,.75537-.39258,1.72168-.30957,2.72021,.08203,.99805,.34961,1.93311,.75293,2.63232,.61719,1.06885,1.33984,1.26221,1.78125,1.26221,.04395,0,.08496-.00195,.12207-.00488l-.12305-1.49512c-.02637,.00049-.22852-.07422-.48047-.51172Z"/><path d="M70.34131,110.88525c-.7627-.6709-1.60254-.87549-2.57617-1.11279-.59082-.14404-1.03418-.2002-1.46289-.25488-.17096-.02136-1.08093-.12964-2.29297-.13599v-.00024l-.00928,.00012-.00928-.00012v.00024c-1.21204,.00635-2.12201,.11462-2.29297,.13599-.42871,.05469-.87207,.11084-1.46289,.25488-.97363,.2373-1.81348,.44189-2.57617,1.1123-.55371,.48682-.92188,1.05225-1.09473,1.67676-.02148,.07471-.03516,.13672-.04492,.17969l1.48926,.22461c.14258-.5166,.51758-.84619,.64062-.95459,.48535-.42676,1.06445-.56787,1.94141-.78174,.50781-.12354,.89062-.17236,1.29688-.22363,.15552-.0199,.987-.11847,2.11279-.12427,1.12579,.0058,1.95728,.10437,2.11279,.12427,.40625,.05127,.78906,.1001,1.29785,.22412,.87598,.21338,1.45508,.35449,1.94043,.78174,.12305,.10791,.49805,.4375,.66309,1.04492l1.4668-.31543c-.00977-.04297-.02344-.10498-.04395-.1748-.17383-.62939-.54199-1.19482-1.0957-1.68115Z"/><path d="M50.3208,58.73145c-.16309-.06055-.33691-.12012-.52539-.17871-.8877-.27637-1.94434-.44336-2.97461-.4707-2.13672-.06934-4.09473,.57275-5.1377,.91113-1.16406,.37939-2.30859,.86377-3.40039,1.44043l.70117,1.32617c1.01562-.53662,2.08008-.9873,3.16309-1.33984,.3869-.12555,.91193-.29272,1.52063-.44568-.01123,.09808-.03204,.18689-.03204,.29572,0,1.67065,1.35431,3.02496,3.0249,3.02496s3.0249-1.35431,3.0249-3.02496c0-.06537-.01514-.11615-.01923-.17755,.04315,.0152,.09167,.02991,.13318,.04529,.00586,.00244,.54785,.2041,1.03418,.4541,.88184,.45508,1.75195,1.19727,1.99805,1.41406l.99219-1.125c-.27832-.24561-1.26758-1.08838-2.30371-1.62256-.56934-.29297-1.1748-.51758-1.19922-.52686Z"/><path d="M44.26025,55.11377l.12695-.02783c.11914-.03271,2.9541-.81299,5.65332-.36865,.69629,.11426,2.08789,.44482,3.5918,1.37012,1.09766,.67529,2.0498,1.54102,2.83105,2.57324l.63477,.83984,2.95703-4.41748-.10254-.33936c-.38281-1.26807-.96582-2.44775-1.73242-3.50635-.46289-.63867-1.28027-1.6001-2.54883-2.55127l-.02539,.03369c-.88281-.80029-3.26172-1.4458-3.29102-1.45264-4.61523-1.06543-9.74414,2.11279-11.20605,3.1123-2.50586,1.71631-4.58105,3.97607-6.16895,6.7168l-1.33594,2.30615,2.34277-1.271c1.77539-.96289,3.64551-1.74658,5.55957-2.3291,.88867-.27051,1.80176-.50195,2.71387-.68848Zm-6.46094,.46973c1.20215-1.54834,2.60645-2.87695,4.19727-3.96631,1.33398-.9126,6.00391-3.81592,10.02051-2.88818,1.47949,.3418,2.64551,1.08789,2.77051,1.16943,1.10938,.83447,1.81738,1.6665,2.21777,2.21875,.60059,.82959,1.07227,1.74561,1.40527,2.72705l-1.41309,2.11084c-.75391-.83447-1.61719-1.55322-2.57812-2.14502-1.72266-1.06006-3.33008-1.44043-4.13477-1.57324-.68848-.11279-1.37793-.15723-2.03418-.15723-2.18164,0-4.00098,.48779-4.21777,.5498-.98242,.19824-1.96582,.44678-2.92383,.73828-1.12012,.34082-2.22656,.74756-3.30957,1.21582Z"/><path d="M48.66943,66.03271c-1.15723,.52246-2.38867,.86133-3.65918,1.0083l.17188,1.49023c1.4248-.16455,2.80566-.54541,4.10449-1.13135,.95898-.43262,1.87109-.97705,2.70996-1.61914l-.91016-1.19141c-.74902,.57227-1.5625,1.05762-2.41699,1.44336Z"/><path d="M81.1792,58.08203c-1.03027,.02734-2.08691,.19434-2.97363,.4707-.18945,.05859-.36328,.11816-.52539,.17822-.02539,.00928-.63184,.23438-1.20117,.52783-1.03516,.53369-2.02441,1.37646-2.30273,1.62207l.99219,1.125c.24609-.2168,1.11621-.95898,1.99805-1.41406,.48535-.25,1.02832-.45166,1.03418-.4541,.04138-.01532,.09009-.02997,.13312-.04517-.00409,.0614-.01923,.11212-.01923,.17743,0,1.67065,1.35431,3.02496,3.02496,3.02496s3.0249-1.35431,3.0249-3.02496c0-.1087-.02081-.19739-.03198-.29535,.60834,.15265,1.13232,.31952,1.51959,.44531,1.08398,.35254,2.14844,.80322,3.16406,1.33984l.70117-1.32617c-1.0918-.57666-2.23633-1.06104-3.40137-1.44043-1.04199-.33838-3.00293-.98047-5.13672-.91113Z"/><path d="M86.8501,50.37939c-1.45898-1.00049-6.58008-4.1792-11.20508-3.1123-.0293,.00684-2.4082,.65234-3.29102,1.45264l-.02539-.03369c-1.26855,.95117-2.08594,1.9126-2.54883,2.55127-.7666,1.05859-1.34961,2.23828-1.73242,3.50635l-.10254,.33936,2.95703,4.41748,.63477-.83984c.78125-1.03223,1.7334-1.89795,2.83105-2.57324,1.50391-.92529,2.89551-1.25586,3.5918-1.37012,2.69824-.44434,5.53418,.33545,5.65332,.36865l.13086,.02881c.91113,.18604,1.82227,.41748,2.70996,.6875,1.91406,.58252,3.78418,1.36621,5.55957,2.3291l2.34277,1.271-1.33594-2.30615c-1.58789-2.74072-3.66406-5.00049-6.16992-6.7168Zm.04102,3.98828c-.95801-.2915-1.94141-.54004-2.87402-.72607-.33203-.09375-3.3252-.89404-6.30176-.40479-.80469,.13281-2.41211,.51318-4.13477,1.57324-.96094,.5918-1.82422,1.31055-2.57812,2.14502l-1.41309-2.11084c.33301-.98145,.80469-1.89746,1.40527-2.72705,.40039-.55225,1.1084-1.38428,2.21777-2.21875,.125-.08154,1.29102-.82764,2.77051-1.16943,4.0166-.93262,8.68652,1.97461,10.01953,2.8877,1.59082,1.08984,2.99609,2.41846,4.19727,3.9668-1.08203-.46826-2.18848-.875-3.30859-1.21582Z"/><path d="M76.91357,64.58936l-.91016,1.19141c.83887,.64209,1.75098,1.18652,2.70996,1.61914,1.29883,.58594,2.67969,.9668,4.10449,1.13135l.17188-1.49023c-1.27051-.14697-2.50195-.48584-3.65918-1.0083-.85449-.38574-1.66797-.87109-2.41699-1.44336Z"/><path d="M71.49072,102.91504c-.54688,.01953-1.03418-.10889-1.24609-.17432-.29785-.09326-.50195-.20312-.62402-.26953-.23926-.12891-.35449-.22461-.46484-.31738-.16699-.13867-.37305-.31104-.76953-.42432-.63184-.18066-1.23145-.07471-1.39746-.0376-.29199,.06299-.5332,.18604-.97559,.4126-.39551,.20166-.58008,.31201-.70996,.38965-.20508,.12158-.4707,.28174-.63086,.354-.15527,.07178-.38281,.11133-.6875,.11475-.27441-.00342-.50195-.04297-.65918-.11523-.1582-.07178-.42383-.23193-.62598-.35156-.13281-.07959-.31738-.18994-.71777-.39404-.4375-.22412-.67969-.34717-.96875-.40967-.16797-.03711-.76855-.14355-1.39941,.03711-.39648,.11328-.60254,.28564-.76953,.42432-.11035,.09277-.22559,.18848-.46484,.31787-.12207,.06592-.32617,.17578-.62207,.26855-.21387,.06592-.64648,.18896-1.24805,.1748-.56152-.00146-1.01367-.10791-1.29395-.19678l-.45312,1.42969c.5459,.17285,1.14844,.26562,1.74316,.26709,.81836,.00977,1.40039-.15039,1.69727-.24268,.43555-.13623,.74219-.30176,.88965-.38086,.37109-.20068,.56836-.36523,.71289-.48535,.12012-.1001,.12988-.1084,.2207-.13428,.25-.0708,.53516-.04199,.66895-.01416,.09961,.02197,.29004,.11914,.61035,.28271,.34668,.17725,.50781,.27295,.62793,.34473,.25,.14795,.57812,.33936,.76953,.42725,.34961,.15967,.77441,.24414,1.33203,.25049,.48828-.00635,.91309-.09082,1.26074-.25,.19336-.08838,.52148-.27979,.77441-.42969,.11719-.06982,.27832-.16553,.62988-.34521,.31543-.16113,.50586-.2583,.60742-.28076,.12891-.02832,.41406-.05762,.66699,.01465,.09082,.02588,.10059,.03418,.2207,.13428,.14453,.12012,.3418,.28467,.71289,.48486,.14746,.07959,.4541,.24512,.8916,.38184,.29297,.09082,.89844,.24219,1.67676,.24219h.01855c.59473-.00146,1.19727-.09424,1.74316-.26709l-.45312-1.42969c-.28027,.08887-.73242,.19531-1.29395,.19678Z"/></svg>